<?xml version="1.0" standalone="no"?>
<!DOCTYPE svg PUBLIC "-//W3C//DTD SVG 20010904//EN"
 "http://www.w3.org/TR/2001/REC-SVG-20010904/DTD/svg10.dtd">
<svg version="1.0" xmlns="http://www.w3.org/2000/svg"
 width="1280.000000pt" height="1109.000000pt" viewBox="0 0 1280.000000 1109.000000"
 preserveAspectRatio="xMidYMid meet">
<metadata>
Created by potrace 1.15, written by Peter Selinger 2001-2017
</metadata>
<g transform="translate(0.000000,1109.000000) scale(0.100000,-0.100000)"
fill="#000000" stroke="none">
<path d="M3768 11080 c-174 -31 -317 -106 -445 -231 -212 -208 -327 -529 -294
-826 38 -348 206 -613 482 -762 112 -61 209 -83 354 -84 102 0 134 5 210 27
320 96 557 374 631 737 23 114 15 360 -16 474 -30 112 -108 269 -180 359 -108
136 -279 250 -435 291 -72 19 -242 27 -307 15z"/>
<path d="M1916 10419 c-125 -29 -279 -153 -343 -274 -59 -113 -78 -195 -78
-340 0 -95 5 -146 18 -190 95 -321 343 -536 621 -539 159 -1 270 46 387 163
122 122 179 269 179 463 -1 213 -72 387 -220 539 -128 130 -267 190 -435 188
-49 -1 -108 -5 -129 -10z"/>
<path d="M806 9484 c-87 -21 -168 -69 -236 -139 -307 -321 -122 -910 325
-1036 79 -22 228 -17 300 11 175 67 291 205 329 392 31 148 13 276 -61 427
-124 258 -405 406 -657 345z"/>
<path d="M3120 8896 c-343 -61 -672 -240 -1040 -566 -41 -37 -140 -113 -220
-170 -512 -367 -718 -606 -806 -936 -22 -85 -26 -119 -26 -244 -1 -121 4 -164
25 -257 47 -205 150 -424 283 -599 166 -221 490 -566 654 -697 260 -209 539
-350 794 -402 92 -18 322 -21 436 -5 318 45 651 171 1029 391 420 244 671 733
672 1309 0 367 -62 773 -165 1075 -98 290 -268 587 -425 742 -157 156 -407
280 -681 340 -143 30 -410 40 -530 19z"/>
<path d="M8165 8316 c-274 -63 -487 -262 -584 -543 -218 -638 287 -1369 918
-1330 118 8 192 27 296 77 206 99 366 305 431 556 22 83 26 122 26 234 0 144
-13 225 -58 358 -98 292 -334 532 -619 628 -67 22 -101 27 -215 30 -91 2 -154
-1 -195 -10z"/>
<path d="M10135 8204 c-122 -19 -273 -107 -357 -208 -63 -75 -121 -194 -149
-306 -28 -110 -23 -287 11 -395 49 -155 154 -301 271 -376 335 -215 760 -12
869 416 21 82 28 234 15 312 -45 257 -212 468 -424 533 -66 21 -181 32 -236
24z"/>
<path d="M284 8139 c-102 -23 -211 -123 -255 -236 -18 -47 -23 -77 -23 -158 0
-116 17 -183 70 -271 197 -329 616 -322 734 12 43 123 29 268 -39 399 -98 189
-302 295 -487 254z"/>
<path d="M11455 7613 c-171 -36 -329 -160 -409 -321 -55 -112 -71 -182 -70
-317 0 -108 3 -129 30 -205 72 -204 222 -339 412 -372 238 -41 489 112 593
360 80 193 76 382 -12 562 -73 148 -209 258 -357 289 -52 11 -147 13 -187 4z"/>
<path d="M12324 6461 c-93 -24 -197 -102 -254 -191 -104 -162 -109 -397 -12
-550 88 -138 234 -208 377 -180 168 33 306 175 350 362 66 281 -108 554 -360
564 -38 2 -84 0 -101 -5z"/>
<path d="M9485 6413 c-339 -44 -649 -196 -891 -438 -128 -128 -190 -217 -246
-353 -176 -430 -201 -929 -77 -1530 49 -237 77 -336 136 -475 138 -327 370
-597 650 -756 98 -56 177 -85 323 -120 313 -76 566 -106 824 -98 198 6 306 21
464 67 271 79 544 286 773 585 128 167 260 398 400 702 163 356 212 546 211
823 -2 308 -91 541 -284 746 -177 187 -399 311 -839 469 -101 36 -209 76 -239
89 -30 13 -118 52 -195 86 -321 143 -615 212 -880 208 -55 0 -113 -3 -130 -5z"/>
<path d="M4920 5088 c-195 -27 -444 -151 -686 -340 -308 -240 -413 -339 -501
-471 -151 -230 -160 -461 -28 -732 64 -130 126 -215 254 -347 258 -268 535
-412 832 -433 269 -20 600 101 838 304 118 102 235 278 279 422 82 268 34 678
-126 1059 -50 119 -100 191 -211 300 -143 140 -287 215 -464 239 -88 12 -96
12 -187 -1z"/>
<path d="M8755 2245 c-273 -50 -510 -280 -609 -591 -52 -164 -61 -554 -17
-777 79 -396 236 -612 555 -763 307 -145 687 -153 968 -20 154 73 370 259 465
401 358 535 385 982 75 1277 -122 117 -325 223 -695 364 -286 108 -541 146
-742 109z"/>
</g>
</svg>
