<?xml version="1.0" encoding="iso-8859-1"?>
<!-- Uploaded to: SVG Repo, www.svgrepo.com, Generator: SVG Repo Mixer Tools -->
<svg height="800px" width="800px" version="1.1" id="Capa_1" xmlns="http://www.w3.org/2000/svg" xmlns:xlink="http://www.w3.org/1999/xlink" 
	 viewBox="0 0 125.26 125.26" xml:space="preserve">
<g>
	<path style="fill:#010002;" d="M62.63,0C28.04,0,0,28.04,0,62.63s28.04,62.63,62.63,62.63s62.63-28.04,62.63-62.63
		S97.219,0,62.63,0z M68.886,32.271c1.954-2.409,4.463-1.865,6.65-0.082c2.183,1.786,3.225,4.126,1.267,6.528
		c-1.954,2.409-6.163,3.951-8.353,2.165C66.262,39.11,66.932,34.668,68.886,32.271z M59.137,25.256c3.464,0,6.277,1.424,6.277,5.232
		c0,3.808-2.813,8.564-6.277,8.564c-3.468,0-6.277-4.753-6.277-8.564C52.86,26.68,55.669,25.256,59.137,25.256z M43.63,27.811
		c4.187,0,7.584,3.21,7.584,7.183c0,3.955-1.396,7.168-5.583,7.168c-4.184,0-9.581-3.21-9.581-7.168
		C36.053,31.021,39.45,27.811,43.63,27.811z M77.192,64.051c-1.779,7.333-6.313,14.383-10.665,21.337
		c-5.694,9.087-13.56,19.218-24.447,12.776c-11.782-6.979-3.174-17.461-0.204-24.3c2.09-4.814-2.906-14.895,0.204-22.704
		c2.867-7.222,11.488-11.896,20.131-9.398C79.3,46.718,78.574,58.364,77.192,64.051z M76.713,47.577
		c-1.768-1.961-0.523-5.948,1.621-7.881c2.144-1.943,4.377-1.088,6.141,0.859c1.764,1.958,2.391,4.262,0.247,6.191
		C82.578,48.69,78.477,49.535,76.713,47.577z M87.084,56.442c-2.176,0.709-5.429-0.011-6.08-1.99
		c-0.651-1.99,1.539-4.481,3.718-5.204c2.18-0.716,3.532,0.623,4.18,2.605C89.554,53.84,89.264,55.716,87.084,56.442z"/>
</g>
</svg>